<?xml version="1.0" encoding="UTF-8" standalone="no"?>
<!DOCTYPE svg PUBLIC "-//W3C//DTD SVG 1.1//EN" "http://www.w3.org/Graphics/SVG/1.1/DTD/svg11.dtd">
<svg width="100%" height="100%" viewBox="0 0 123 120" version="1.1" xmlns="http://www.w3.org/2000/svg" xmlns:xlink="http://www.w3.org/1999/xlink" xml:space="preserve" xmlns:serif="http://www.serif.com/" style="fill-rule:evenodd;clip-rule:evenodd;stroke-linejoin:round;stroke-miterlimit:2;">
    <g transform="matrix(1,0,0,1,-5285.53,-3345.37)">
        <g transform="matrix(1,0,0,3.32614,5215.53,2168.4)">
            <g id="Logo" transform="matrix(0.461454,0,0,0.138736,70,353.725)">
                <path d="M55.285,202.35L55.27,202.35" style="fill:none;fill-rule:nonzero;"/>
                <path d="M43.445,135.48C47.029,135.48 48.874,137.68 49.588,140.511L56.811,140.511C55.526,133.099 50.207,129.306 43.394,129.306C39.4,129.306 36.119,130.706 33.556,133.197C29.874,136.781 29.977,141.204 29.977,147.34C29.977,153.459 29.874,157.891 33.556,161.479C36.119,163.963 39.4,165.367 43.394,165.367C50.152,165.367 55.526,161.581 56.811,154.161L49.588,154.161C48.874,156.999 47.029,159.184 43.445,159.184C41.497,159.184 39.912,158.491 38.887,157.339C37.499,155.857 37.093,154.161 37.093,147.34C37.093,140.511 37.499,138.824 38.887,137.326C39.912,136.182 41.497,135.48 43.445,135.48Z" style="fill:white;fill-rule:nonzero;"/>
                <path d="M134.998,151.125L141.704,151.125L141.704,152.466C141.704,154.311 141.247,155.904 140.064,157.197C138.888,158.443 137.146,159.184 134.998,159.184C133.049,159.184 131.465,158.491 130.438,157.339C129.059,155.857 128.697,154.161 128.697,147.34C128.697,140.511 129.059,138.87 130.438,137.372C131.465,136.238 133.049,135.48 134.998,135.48C138.636,135.48 140.726,137.326 141.547,140.669L148.722,140.669C147.744,134.688 143.455,129.306 134.998,129.306C130.901,129.306 127.731,130.706 125.164,133.197C121.477,136.781 121.576,141.204 121.576,147.34C121.576,153.459 121.477,157.891 125.164,161.479C127.731,163.963 131.003,165.367 134.998,165.367C138.888,165.367 142.367,164.263 145.284,161.329C147.855,158.743 148.769,155.652 148.769,150.526L148.769,145.353L134.998,145.353L134.998,151.125Z" style="fill:white;fill-rule:nonzero;"/>
                <path d="M74.656,152.718L67.334,129.613L59.957,129.613L71.991,165.059L77.318,165.059L89.403,129.613L81.978,129.613L74.656,152.718Z" style="fill:white;fill-rule:nonzero;"/>
                <path d="M94.575,129.613L94.575,165.059L118.233,165.059L118.233,158.884L101.688,158.884L101.688,129.613L94.575,129.613Z" style="fill:white;fill-rule:nonzero;"/>
                <path d="M254.223,81.878C241.701,54.661 218.873,32.609 191.62,19.85C192.172,20.418 192.724,20.993 193.276,21.581C219.046,35.129 239.974,57.082 251.061,83.226C255.698,93.92 258.756,105.219 260.209,116.681L265.082,118.889C263.379,106.09 259.704,93.573 254.223,81.878Z" style="fill:white;fill-rule:nonzero;"/>
                <path d="M87.486,249.822C69.519,242.708 53.263,231.606 40.405,217.648C27.5,203.714 18.065,186.886 12.833,168.978C7.601,151.046 6.623,132.038 9.975,113.838C13.314,95.627 21.01,78.274 32.188,63.446C43.307,48.593 57.904,36.319 74.526,27.858C75.448,27.388 76.371,26.935 77.302,26.49L77.014,25.078C76.919,24.72 76.734,24.199 76.71,23.012C76.71,22.795 76.718,22.551 76.746,22.271C76.852,20.102 77.574,18.391 78.237,17.149C78.966,15.808 79.707,14.878 80.184,14.243C81.248,12.859 82.345,11.657 83.358,10.597C78.339,12.623 73.453,14.933 68.73,17.532C50.771,27.33 35.268,41.212 23.727,57.626C12.131,73.992 4.427,92.918 1.446,112.478C-1.545,132.038 0.133,152.182 6.209,170.902C12.289,189.622 22.734,206.955 36.596,221.071C50.428,235.217 67.555,246.178 86.224,252.96C105.517,260.12 126.406,262.406 146.719,260.183L145.063,258.67C125.436,260.041 105.572,257.14 87.486,249.822Z" style="fill:white;fill-rule:nonzero;"/>
                <path d="M131.827,2.328C132.38,2.447 132.916,2.581 133.57,2.738C134.646,2.991 135.553,3.216 136.673,3.547C140.127,4.596 143.801,6.173 147.05,8.164C150.158,10.064 152.941,12.244 155.803,14.76C156.757,15.588 157.586,16.396 158.327,17.134C159.202,17.985 159.983,18.825 160.787,19.704C161.591,20.564 162.396,21.467 163.184,22.409C167.639,27.771 170.967,32.708 173.893,39.84C176.842,46.969 181.59,64.116 185.122,68.426C185.706,69.155 188.071,72.096 192.203,71.52C193.433,71.355 194.632,71.166 195.799,70.432C201.256,66.99 201.847,56.518 197.092,43.988C193.702,35.054 188.04,26.797 181.715,21.273C178.546,18.498 175.029,16.002 171.291,13.766C163.784,9.264 155.078,5.964 146.246,3.598C144.038,3.011 141.719,2.514 139.544,2.049C138.47,1.827 137.398,1.599 136.302,1.445C135.19,1.284 134.079,1.09 132.994,1.012C132.06,0.944 130.905,0.976 130.104,0.964C129.244,0.948 128.507,0.932 127.683,1.035C127.411,1.075 127.096,1.075 126.871,1.267C126.95,1.5 127.317,1.532 127.573,1.595C128.965,1.946 130.522,2.072 131.827,2.328Z" style="fill:white;fill-rule:nonzero;"/>
                <path d="M81.765,24.085C81.903,24.211 82.096,24.337 82.345,24.333C82.384,24.333 82.447,24.321 82.506,24.298C82.506,24.298 96.416,18.608 111.801,16.12C118.213,15.083 122.771,14.922 128.149,14.933C130.002,14.937 131.713,14.985 133.728,15.032C134.019,15.04 134.346,15.04 134.638,15.055C134.685,15.063 134.741,15.063 134.694,15.055C137.02,15.214 139.22,15.316 141.467,15.592C143.683,15.864 145.82,16.144 148.012,16.577C150.141,16.995 152.444,17.445 154.795,17.815C154.762,17.606 154.565,17.449 154.431,17.315C153.406,16.286 152.175,15.336 151.064,14.35C149.779,13.211 148.415,12.142 146.971,11.179C141.144,7.32 134.15,4.268 126.793,3.322C125.937,3.212 125.046,3.156 124.131,3.14C123.378,3.125 121.947,3.113 121.292,3.14C116.088,3.369 111.439,4.126 106.009,5.774C102.442,6.862 98.975,8.057 95.659,9.705C92.446,11.318 89.473,13.068 87.115,15.485C85.941,16.692 84.726,17.973 83.697,19.322C82.739,20.575 81.615,22.086 81.718,23.758C81.631,23.777 81.741,23.939 81.765,24.085Z" style="fill:white;fill-rule:nonzero;"/>
                <path d="M162.838,134.951C163.626,134.968 163.989,135.125 164.651,135.827L164.887,136.079L166.307,134.783L166.07,134.534C165.1,133.505 164.146,133.107 162.838,133.126C161.623,133.126 160.519,133.529 159.73,134.361C158.942,135.185 158.492,136.403 158.492,137.956C158.492,139.517 158.942,140.74 159.73,141.568C160.519,142.388 161.623,142.798 162.838,142.798L162.9,142.798C164.177,142.798 165.117,142.396 166.07,141.378L166.307,141.134L164.887,139.809L164.651,140.077C163.989,140.771 163.626,140.952 162.838,140.968C162.048,140.96 161.449,140.677 161.048,140.117C160.676,139.613 160.519,139.036 160.519,137.956C160.519,136.884 160.676,136.3 161.04,135.812C161.449,135.247 162.048,134.955 162.838,134.951Z" style="fill:white;fill-rule:nonzero;"/>
                <path d="M167.664,129.306L167.664,140.006C167.664,140.74 167.869,141.402 168.31,141.899C168.752,142.404 169.445,142.696 170.297,142.696L171.622,142.696L171.622,140.89L170.557,140.89C169.777,140.826 169.769,140.747 169.698,139.959L169.698,129.306L167.664,129.306Z" style="fill:white;fill-rule:nonzero;"/>
                <path d="M178.546,142.136L178.546,142.696L180.564,142.696L180.564,133.229L178.513,133.229L178.513,138.974C178.482,140.369 177.828,140.937 176.622,140.968C175.423,140.921 174.824,140.401 174.784,138.974L174.784,133.229L172.757,133.229L172.757,139.17C172.742,140.243 173.049,141.189 173.775,141.883C174.414,142.483 175.312,142.798 176.353,142.798L176.369,142.798C177.166,142.798 177.923,142.577 178.546,142.136Z" style="fill:white;fill-rule:nonzero;"/>
                <path d="M185.185,140.117C184.917,139.596 184.822,138.792 184.822,137.956C184.822,137.128 184.917,136.331 185.185,135.795C185.485,135.279 185.863,134.968 186.747,134.951C187.622,134.968 188.008,135.279 188.293,135.795C188.56,136.324 188.647,137.12 188.647,137.956C188.647,138.792 188.56,139.596 188.293,140.117C188.008,140.645 187.622,140.952 186.747,140.968C185.863,140.952 185.485,140.645 185.185,140.117ZM187.014,142.798C188.024,142.798 188.907,142.475 189.475,141.923C190.507,140.906 190.673,139.36 190.673,137.956C190.673,136.56 190.507,135.015 189.475,133.99C188.907,133.446 188.024,133.134 187.014,133.126C186.242,133.115 185.493,133.26 184.822,133.757L184.822,129.306L182.796,129.306L182.796,142.696L184.822,142.696L184.822,142.136C185.468,142.64 186.211,142.798 186.96,142.798L187.014,142.798Z" style="fill:white;fill-rule:nonzero;"/>
                <path d="M202.975,133.237L200.752,139.549L198.559,133.237L196.367,133.237L199.923,142.696L201.588,142.696L201.681,142.466L205.168,133.237L202.975,133.237Z" style="fill:white;fill-rule:nonzero;"/>
                <path d="M210.916,140.432C210.561,140.771 210.072,140.968 209.52,140.968C208.961,140.968 208.495,140.771 208.132,140.432C207.596,139.927 207.502,138.934 207.509,137.964C207.502,136.994 207.596,135.993 208.132,135.495C208.495,135.153 208.961,134.963 209.52,134.963C210.072,134.963 210.561,135.157 210.916,135.495C211.444,135.985 211.539,136.994 211.523,137.964C211.539,138.934 211.444,139.935 210.916,140.432ZM212.343,134.234C211.665,133.556 210.703,133.126 209.52,133.134C208.322,133.126 207.359,133.556 206.681,134.226C205.656,135.247 205.474,136.584 205.474,137.964C205.474,139.344 205.656,140.685 206.681,141.701C207.359,142.372 208.322,142.798 209.52,142.798L209.528,142.798C210.711,142.798 211.665,142.372 212.343,141.701C213.369,140.685 213.549,139.344 213.549,137.964C213.549,136.584 213.369,135.247 212.343,134.234Z" style="fill:white;fill-rule:nonzero;"/>
                <path d="M215.371,129.318L215.371,140.023C215.371,140.74 215.56,141.41 216.017,141.914C216.452,142.404 217.137,142.696 217.989,142.696L219.314,142.696L219.314,140.906L218.257,140.906C217.468,140.834 217.468,140.755 217.39,139.959L217.39,129.318L215.371,129.318Z" style="fill:white;fill-rule:nonzero;"/>
                <path d="M225.189,129.318L225.189,140.023C225.189,140.74 225.379,141.41 225.828,141.914C226.269,142.404 226.963,142.696 227.814,142.696L229.139,142.696L229.139,140.906L228.067,140.906C227.295,140.826 227.295,140.755 227.215,139.959L227.215,129.318L225.189,129.318Z" style="fill:white;fill-rule:nonzero;"/>
                <rect x="230.433" y="129.306" width="2.192" height="2.122" style="fill:white;"/>
                <rect x="230.511" y="133.237" width="2.019" height="9.459" style="fill:white;"/>
                <path d="M237.167,135.795C237.451,135.279 237.845,134.972 238.728,134.963C239.603,134.976 239.99,135.279 240.274,135.795C240.55,136.331 240.621,137.128 240.621,137.964C240.621,138.808 240.55,139.596 240.274,140.124C239.99,140.653 239.603,140.952 238.728,140.968C237.845,140.952 237.451,140.653 237.167,140.124C236.891,139.596 236.804,138.8 236.804,137.964C236.804,137.136 236.891,136.331 237.167,135.795ZM234.778,129.318L234.778,142.696L236.804,142.696L236.804,142.144C237.451,142.64 238.184,142.798 238.949,142.798L238.997,142.798C239.99,142.798 240.889,142.483 241.457,141.931C242.482,140.913 242.647,139.36 242.656,137.964C242.647,136.568 242.482,135.019 241.457,133.993C240.889,133.45 239.99,133.134 238.997,133.134C238.224,133.118 237.474,133.264 236.804,133.761L236.804,129.318L234.778,129.318Z" style="fill:white;fill-rule:nonzero;"/>
                <path d="M244.532,133.237L244.532,142.696L246.558,142.696L246.558,136.962C246.583,135.764 247.26,134.968 248.365,134.955C249.011,134.972 249.201,135.058 249.673,135.495L249.925,135.748L250.178,135.495L251.392,134.289L251.14,134.049C250.447,133.359 249.642,133.118 248.727,133.134C247.923,133.134 247.15,133.363 246.558,133.8L246.558,133.237L244.532,133.237Z" style="fill:white;fill-rule:nonzero;"/>
                <path d="M253.656,136.994C253.687,136.56 253.726,136.379 253.884,136.008C254.176,135.342 254.839,134.905 255.667,134.905C256.47,134.905 257.14,135.342 257.433,136.016C257.59,136.379 257.638,136.56 257.661,136.994L253.656,136.994ZM255.667,133.134C254.421,133.126 253.38,133.583 252.677,134.439C251.968,135.294 251.597,136.49 251.597,137.964C251.597,139.565 252.007,140.779 252.773,141.599C253.538,142.435 254.641,142.798 255.895,142.798L255.951,142.798C257.527,142.798 258.521,142.262 259.444,141.331L259.712,141.079L258.285,139.865L258.048,140.085C257.354,140.747 256.913,140.968 255.935,140.984C254.5,140.952 253.774,140.227 253.648,138.65L259.712,138.65L259.712,137.72C259.712,136.364 259.357,135.212 258.655,134.4C257.954,133.579 256.913,133.126 255.667,133.134Z" style="fill:white;fill-rule:nonzero;"/>
                <path d="M164.304,159.168C164.02,159.673 163.642,159.981 162.766,160.004C161.891,159.981 161.497,159.673 161.213,159.168C160.945,158.64 160.858,157.86 160.866,157.071C160.858,156.267 160.945,155.486 161.213,154.965C161.497,154.445 161.891,154.154 162.766,154.129C163.642,154.154 164.02,154.445 164.304,154.965C164.572,155.486 164.651,156.267 164.635,157.071C164.651,157.86 164.572,158.648 164.304,159.168ZM162.522,164.081C161.552,164.066 161.26,163.845 160.597,163.285L160.345,163.079L158.981,164.372L159.257,164.618C160.219,165.493 161.127,165.887 162.507,165.887L162.561,165.887C163.823,165.887 164.872,165.461 165.582,164.72C166.291,163.979 166.67,162.946 166.67,161.786L166.67,152.403L164.651,152.403L164.651,152.939C164.005,152.442 163.256,152.292 162.482,152.3C161.489,152.3 160.605,152.623 160.038,153.16C159.021,154.161 158.84,155.62 158.832,157.071C158.84,158.522 159.021,159.973 160.038,160.951C160.597,161.502 161.465,161.841 162.466,161.841C163.232,161.849 163.989,161.692 164.635,161.202L164.635,161.74C164.603,163.135 164.051,164.05 162.522,164.081Z" style="fill:white;fill-rule:nonzero;"/>
                <path d="M170.542,156.172C170.573,155.73 170.621,155.549 170.77,155.178C171.054,154.516 171.724,154.075 172.552,154.075C173.365,154.075 174.035,154.508 174.319,155.178C174.476,155.549 174.524,155.73 174.548,156.172L170.542,156.172ZM176.605,156.89C176.605,155.533 176.243,154.39 175.548,153.57C174.84,152.749 173.798,152.292 172.552,152.3C171.322,152.292 170.265,152.765 169.556,153.609C168.862,154.468 168.492,155.66 168.492,157.134C168.492,158.743 168.893,159.956 169.658,160.777C170.423,161.597 171.527,161.976 172.789,161.976L172.837,161.976C174.422,161.976 175.407,161.431 176.338,160.509L176.605,160.249L175.171,159.035L174.933,159.263C174.24,159.917 173.798,160.146 172.82,160.161C171.385,160.13 170.66,159.405 170.534,157.812L176.605,157.812L176.605,156.89Z" style="fill:white;fill-rule:nonzero;"/>
                <path d="M184.175,161.866L186.203,161.866L186.203,155.904C186.211,154.831 185.879,153.901 185.162,153.214C184.539,152.608 183.639,152.3 182.598,152.3C181.802,152.3 181.053,152.513 180.438,152.939L180.438,152.403L178.404,152.403L178.404,161.866L180.438,161.866L180.438,156.124C180.469,154.721 181.116,154.169 182.298,154.129C183.506,154.169 184.129,154.705 184.175,156.124L184.175,161.866Z" style="fill:white;fill-rule:nonzero;"/>
                <path d="M191.564,151.283L193.576,151.283L191.556,147.861L189.089,147.861L191.564,151.283Z" style="fill:white;fill-rule:nonzero;"/>
                <path d="M190.004,156.172C190.027,155.73 190.074,155.549 190.232,155.178C190.515,154.516 191.186,154.075 191.998,154.075C192.834,154.075 193.497,154.516 193.789,155.178C193.938,155.549 193.978,155.73 194.009,156.172L190.004,156.172ZM196.059,156.89C196.059,155.533 195.705,154.39 195.003,153.57C194.3,152.749 193.252,152.292 191.998,152.3C190.768,152.292 189.727,152.749 189.017,153.609C188.324,154.468 187.945,155.667 187.945,157.134C187.945,158.743 188.355,159.956 189.112,160.777C189.884,161.589 190.981,161.976 192.251,161.976L192.298,161.976C193.875,161.976 194.869,161.431 195.791,160.509L196.059,160.249L194.632,159.035L194.395,159.263C193.702,159.917 193.252,160.146 192.282,160.161C190.847,160.13 190.122,159.405 189.996,157.812L196.059,157.812L196.059,156.89Z" style="fill:white;fill-rule:nonzero;"/>
                <path d="M198.544,152.403L196.351,152.403L199.916,161.866L201.588,161.866L201.666,161.636L205.152,152.403L202.96,152.403L200.752,158.727L198.544,152.403Z" style="fill:white;fill-rule:nonzero;"/>
                <path d="M207.47,156.172C207.502,155.73 207.548,155.549 207.691,155.178C207.99,154.516 208.653,154.075 209.48,154.075C210.293,154.075 210.971,154.516 211.256,155.186C211.397,155.549 211.444,155.73 211.484,156.172L207.47,156.172ZM213.542,156.89C213.542,155.533 213.179,154.39 212.469,153.57C211.775,152.749 210.718,152.292 209.48,152.3C208.251,152.292 207.202,152.749 206.492,153.609C205.783,154.468 205.42,155.667 205.42,157.134C205.42,158.743 205.83,159.956 206.587,160.777C207.359,161.597 208.464,161.976 209.71,161.976L209.772,161.976C211.349,161.976 212.343,161.431 213.273,160.509L213.526,160.249L212.099,159.035L211.87,159.263C211.168,159.917 210.718,160.146 209.749,160.161C208.322,160.13 207.596,159.405 207.47,157.812L213.542,157.812L213.542,156.89Z" style="fill:white;fill-rule:nonzero;"/>
                <path d="M117.657,106.319C117.278,106.217 112.097,104.395 111.936,102.376C112.09,101.801 111.648,101.576 111.66,101.079C113.127,99.925 116.983,99.57 116.3,97.381C112.74,97.251 108.525,99.637 106.514,97.291C106.325,97.239 107.295,98.797 107.405,96.447C107.405,94.578 106.341,95.607 106.538,94.846C106.636,94.46 106.739,94.081 106.834,93.699C107.126,92.559 105.454,92.559 106.282,91.096C106.333,90.911 106.384,90.722 106.431,90.529C106.889,89.125 106.759,88.064 106.026,87.355C104.188,90.576 101.614,92.54 100.896,97.669C98.956,96.798 96.799,99.79 98.849,100.819C98.443,101.875 99.169,102.258 98.833,103.267C97.059,105.302 100.194,108.618 102.658,109.777C103.841,110.076 104.776,110.684 106.676,110.822C109.049,109.844 113.04,111.271 116.048,111.535C116.245,111.583 116.699,111.587 116.892,111.638C119.861,112.375 120.779,107.06 117.657,106.319Z" style="fill:white;fill-rule:nonzero;"/>
                <path d="M206.429,116.484C206.302,116.476 206.176,116.456 206.05,116.425C206.161,116.448 206.287,116.468 206.429,116.484Z" style="fill:white;fill-rule:nonzero;"/>
                <path d="M217.083,116.089C216.712,116.298 216.341,116.507 215.97,116.716C215.97,116.716 212.659,108.886 210.971,104.557C211.72,104.714 232.924,109.198 233.279,109.252C238.461,110.475 243.775,111.977 248.948,113.022C249.224,113.081 249.658,113.164 249.95,113.018C249.422,112.557 248.791,112.348 248.183,112.083C247.293,111.701 224.298,100.504 213.636,97.007C212.903,96.766 212.067,96.222 211.5,96.19C211.302,96.179 209.339,96.474 208.613,96.51C201.808,96.881 172.568,101.481 164.651,102.932C165.423,103.39 166.323,103.24 167.143,103.236C173.294,103.185 185.99,103.33 185.99,103.33C193.702,103.342 201.335,103.488 208.858,104.143L203.322,115.249C203.322,115.249 202.834,114.847 202.021,114.189L201.886,114.576C202.265,114.891 202.644,115.206 203.022,115.522C203.219,115.632 203.322,116.089 203.511,116.22C203.511,116.22 205.246,116.373 205.396,116.492C205.609,116.381 205.625,116.996 205.877,116.799C206.397,116.058 207.138,116.2 207.746,116.286C207.707,116.941 208.338,117.509 208.779,117.651C209.457,117.544 209.867,116.941 210.198,116.511C210.198,116.511 211.988,116.507 213.1,117.154C213.298,117.268 213.352,117.529 213.613,117.556C214.393,117.304 215.734,117.588 215.734,117.588C216.144,117.461 215.868,117.154 216.16,117.035C216.444,116.87 216.736,116.704 217.019,116.539L217.083,116.089ZM215.711,116.917L215.591,117.083C215.166,117.256 214.48,117.043 214.48,117.043C213.621,116.358 213.478,114.221 212.659,113.381C212.328,113.026 211.965,113.148 211.547,112.959C211.334,112.521 211.05,112.316 210.726,112.257C210.656,111.685 210.64,110.968 209.946,110.901C209.882,109.501 210.143,105.716 210.167,105.124C211.902,108.886 213.873,112.738 215.711,116.917ZM213.226,116.697C212.272,116.519 211.334,116.251 210.332,116.239C210.466,115.798 211.365,115.861 211.759,115.301C211.878,115.06 211.933,114.804 211.918,114.516C212.028,114.433 212.09,114.528 212.216,114.433C212.58,115.127 213.226,115.9 213.226,116.697ZM207.943,112.619C207.289,112.778 206.933,112.304 206.366,112.659C205.988,112.904 205.806,113.566 205.625,114.185C205.466,114.701 205.357,115.58 205.081,115.789C204.631,116.129 203.535,115.719 203.535,115.719C203.535,115.719 208.984,106.43 209.804,104.375C209.882,107.092 209.567,107.994 209.528,110.889C208.937,111.165 208.763,111.591 208.605,112.029C208.274,112.182 208.085,112.383 207.943,112.619ZM207.793,115.833C207.8,115.861 207.8,115.896 207.8,115.932C207.8,115.932 207.138,115.971 206.587,115.928C206.555,115.928 206.523,115.924 206.492,115.92C206.35,115.904 206.224,115.888 206.122,115.865C205.838,115.021 206.484,114.536 206.658,113.869C206.886,113.653 206.981,113.921 207.162,113.866C206.886,114.682 207.722,115.199 207.793,115.833Z" style="fill:white;fill-rule:nonzero;"/>
                <path d="M259.018,170.571C258.97,170.374 258.821,169.932 258.575,169.285C258.513,169.12 258.459,168.947 258.394,168.773C258.316,168.552 257.811,167.369 257.306,166.218C257.053,165.634 256.802,165.067 256.605,164.641C256.502,164.436 256.423,164.255 256.353,164.136C256.203,163.994 256.4,163.987 256.131,163.837L256.124,163.805C256.108,163.789 256.1,163.789 256.084,163.774C256.077,163.774 256.069,163.774 256.069,163.766C256.045,163.758 256.013,163.742 255.919,163.726C255.777,163.718 255.635,163.789 255.556,163.931C255.541,163.963 255.525,163.994 255.525,164.026C255.509,164.05 255.477,164.105 255.462,164.255C255.438,164.31 255.462,164.38 255.477,164.451C255.398,165.997 254.31,167.598 253.396,169.514C252.749,170.87 252.063,172.18 251.345,173.473C249.603,176.651 248.065,180.018 245.888,183.228C244.027,185.988 241.425,188.771 239.707,191.31C239.674,191.341 238.334,193.092 236.757,195.095C236.315,195.663 235.858,196.262 235.4,196.854C235.022,197.319 234.668,197.792 234.312,198.249C233.058,199.867 231.963,201.278 231.552,201.798C228.193,206.079 224.787,210.456 221.435,214.714C220.955,215.314 220.481,215.929 220.007,216.529L219.937,216.607C219.424,217.261 218.92,217.884 218.407,218.515L218.399,218.531C218.273,218.697 218.139,218.863 218.006,219.012C217.588,219.54 217.153,220.076 216.727,220.597C216.632,220.707 216.57,220.802 216.523,220.881C214.614,219.146 207.005,212.451 205.735,211.316C206.84,209.361 208.684,207.223 208.802,205.251C208.841,204.487 208.55,203.738 207.848,203.17C207.707,203.044 207.502,203.052 207.359,203.17C205.578,204.747 204.213,207.002 202.596,208.69C202.581,208.674 202.565,208.659 202.549,208.659L202.502,208.611C202.376,208.525 202.25,208.406 201.998,208.39C201.894,208.374 201.706,208.398 201.572,208.548C201.516,208.611 201.461,208.674 201.422,208.761C201.398,208.777 201.382,208.785 201.375,208.8C201.335,208.871 201.303,208.958 201.288,209.053C201.288,209.053 201.296,209.076 201.296,209.084C201.311,209.076 201.271,209.202 201.367,209.336C201.398,209.408 201.429,209.462 201.476,209.494C199.837,210.59 198.039,211.395 196.328,212.649C196.241,212.72 196.177,212.829 196.185,212.956C196.177,213.075 196.241,213.185 196.336,213.263C197.14,213.847 197.928,214.099 198.701,214.131C200.965,214.195 202.817,212.523 204.631,212.231C205.656,213.138 213.305,220.037 215.482,221.898C215.434,221.938 215.371,221.986 215.316,222.048C215.261,222.072 215.229,222.111 215.198,222.135C215.056,222.001 214.906,221.843 214.74,221.701C213.731,220.771 212.454,219.871 210.971,219.462L210.672,219.486C210.072,219.817 209.717,220.274 209.693,220.786C209.741,222.103 211.334,223.136 211.854,223.941C208.109,226.038 204.299,228.167 200.42,230.344C198.496,231.416 196.493,232.378 194.506,233.466C191.525,235.122 188.576,236.873 185.619,238.395C182.598,239.964 179.633,241.486 176.748,243.111C174.745,244.23 172.828,245.137 170.81,245.926C167.947,247.037 165.092,247.866 162.301,248.827C161.497,249.112 160.724,249.396 159.951,249.632C158.327,250.113 156.789,250.736 155.275,250.846C155.228,250.846 155.173,250.846 155.125,250.83C154.967,250.83 154.762,250.799 154.542,250.791C154.273,250.776 153.926,250.807 153.627,251.035C153.516,251.115 153.469,251.241 153.485,251.367C153.485,251.493 153.548,251.603 153.659,251.666C155.322,252.652 157.065,253.528 158.816,254.056C160.219,254.474 161.733,254.931 163.121,255.002C163.334,255.018 163.547,255.01 163.736,254.994C164.382,254.954 175.801,252.558 178.388,251.951C178.42,251.943 178.443,251.935 178.466,251.927C178.474,251.927 178.498,251.919 178.513,251.919C178.53,251.911 178.561,251.911 178.577,251.904L178.577,251.895C178.735,251.856 178.83,251.84 178.923,251.808C178.956,251.792 179.027,251.761 179.113,251.714L179.129,251.714C179.215,251.682 179.318,251.619 179.413,251.572C179.523,251.525 179.602,251.477 179.767,251.398C182.102,250.247 189.002,246.714 196.541,242.851C196.556,242.851 196.556,242.851 196.556,242.834C197.077,242.567 197.597,242.306 198.118,242.038C202.139,239.964 206.224,237.851 209.867,235.966C210.254,235.769 210.648,235.564 211.018,235.374L211.034,235.359C212.761,234.452 223.969,228.559 223.969,228.559C225.264,227.412 233.634,215.976 237.238,211.111C239.012,208.73 240.857,206.458 242.592,204.006C245.321,200.126 248.049,196.231 250.856,192.312C251.858,190.932 253.112,189.536 253.884,187.958C254.302,187.107 254.61,185.972 254.972,184.947C255.138,184.49 257.898,177.053 258.269,176.091C258.844,174.537 259.057,173.686 259.105,172.511C259.113,172.432 259.113,172.393 259.121,172.368C259.135,171.77 259.105,171.044 259.018,170.571Z" style="fill:white;fill-rule:nonzero;"/>
                <path d="M121.173,231.826C120.625,232.115 120.417,232.529 120.417,232.914L120.417,233.135C120.417,233.277 120.413,233.388 120.401,233.498C120.385,233.498 120.37,233.498 120.354,233.49C119.979,233.269 119.884,233.104 119.857,232.725C119.841,231.999 120.567,229.634 120.432,229.5L120.21,229.866L120.086,229.555C119.581,230.691 119.482,232.078 118.962,233.064C118.946,233.056 118.919,233.056 118.919,233.056C118.765,233.088 118.733,232.694 118.67,232.15C118.414,231.574 118.024,231.329 117.625,231.345C117.129,231.345 116.475,231.548 116.34,231.952C116.45,232.717 116.718,232.978 116.762,233.498C116.62,233.427 116.474,233.348 116.364,233.23C115.875,232.378 115.697,230.896 114.747,230.194C114.712,230.375 114.778,230.423 114.775,230.549C114.719,230.501 114.688,230.415 114.629,230.375C114.64,230.565 114.735,230.652 114.795,230.785C114.865,231.322 115.094,231.645 115.13,232.103C114.826,232.512 114.688,232.93 114.688,233.482C114.688,233.829 114.735,234.224 114.81,234.784C115.133,235.052 115.303,235.478 115.776,235.643C115.697,235.651 115.689,235.761 115.689,235.879C115.705,237.417 116.324,239.728 118.264,239.775C118.627,239.775 119.021,239.68 119.447,239.492C119.751,238.451 120.417,237.283 120.432,236.132C120.432,235.659 120.302,235.186 119.979,234.76C120.007,234.76 120.042,234.76 120.086,234.768L120.504,234.768C120.748,234.768 121.008,234.743 121.28,234.681C121.446,234.113 121.502,233.596 121.514,232.989C121.514,232.618 121.422,232.08 121.173,231.826Z" style="fill:white;fill-rule:nonzero;"/>
                <path d="M81.229,202.886C81.903,200.615 83.228,197.926 84.762,195.962C88.188,191.578 95.195,185.538 103.64,183.362C113.434,180.854 122.546,181.043 129.84,183.023C134.437,184.26 140.537,187.509 144.527,191.42C145.868,192.714 147.949,195.253 148.525,196.988C148.769,197.713 149.298,199.077 148.186,199.495C147.271,197.161 142.461,191.91 136.152,188.85C130.325,186.027 122.361,184.055 114.427,184.71C111.4,184.962 108.281,185.341 105.415,186.185C104.914,186.326 101.31,187.54 100.076,188.171C82.928,196.893 82.301,206.04 81.564,206.782C80.464,205.615 80.894,204.022 81.229,202.886Z" style="fill:white;"/>
            </g>
        </g>
    </g>
</svg>
